<?xml version="1.0" encoding="utf-8"?>
<!-- Generator: Adobe Illustrator 16.0.0, SVG Export Plug-In . SVG Version: 6.00 Build 0)  -->
<!DOCTYPE svg PUBLIC "-//W3C//DTD SVG 1.1//EN" "http://www.w3.org/Graphics/SVG/1.1/DTD/svg11.dtd">
<svg version="1.1" id="Layer_1" xmlns="http://www.w3.org/2000/svg" xmlns:xlink="http://www.w3.org/1999/xlink" x="0px" y="0px"
	 width="120px" height="120px" viewBox="0 0 120 120" enable-background="new 0 0 120 120" xml:space="preserve">
<g id="LinKeDin_1_">
	<path fill="#21234C" d="M59.996,0.5c32.858,0,59.504,26.638,59.504,59.501c0,32.858-26.646,59.499-59.504,59.499
		C27.146,119.5,0.5,92.859,0.5,60.001C0.5,27.138,27.146,0.5,59.996,0.5z"/>
	<g id="LinkedIn_2_">
		<rect x="33.693" y="51.077" fill="#FFFFFF" width="11.272" height="35.708"/>
		<path fill="#FFFFFF" d="M75.659,50.607c-6.428,0-10.493,3.446-11.274,5.948v-5.637H51.7c0.158,2.979,0,35.708,0,35.708h12.685
			V67.363c0-1.097,0-2.194,0.317-2.976c0.93-2.194,2.649-4.386,6.101-4.386c4.38,0,6.416,3.289,6.416,8.144v18.48h12.837V66.737
			C89.896,55.775,83.646,50.607,75.659,50.607z"/>
		<path fill="#FFFFFF" d="M39.014,34.166c-4.224,0-6.882,2.661-6.882,6.265c0,3.442,2.659,6.107,6.724,6.107h0.159
			c4.23,0,6.891-2.665,6.891-6.266C45.755,36.827,43.245,34.166,39.014,34.166z"/>
	</g>
</g>
</svg>
