<?xml version="1.0" encoding="utf-8"?>
<!-- Generator: Adobe Illustrator 16.0.0, SVG Export Plug-In . SVG Version: 6.00 Build 0)  -->
<!DOCTYPE svg PUBLIC "-//W3C//DTD SVG 1.1//EN" "http://www.w3.org/Graphics/SVG/1.1/DTD/svg11.dtd">
<svg version="1.1" id="Layer_1" xmlns="http://www.w3.org/2000/svg" xmlns:xlink="http://www.w3.org/1999/xlink" x="0px" y="0px"
	 width="120px" height="120px" viewBox="0 0 120 120" enable-background="new 0 0 120 120" xml:space="preserve">
<g id="Instagram_6_">
	<path fill="#21234C" d="M59.991,0.5c32.872,0,59.509,26.639,59.509,59.503c0,32.858-26.637,59.497-59.509,59.497
		C27.138,119.5,0.5,92.861,0.5,60.003C0.5,27.139,27.138,0.5,59.991,0.5z"/>
	<path id="Instagram_2_" fill="#FFFFFF" d="M83.487,31.19H39.798c-3.757,0-6.883,2.977-6.883,6.733v43.84
		c0,3.756,3.126,6.742,6.883,6.742h43.689c3.757,0,6.882-2.986,6.882-6.742v-43.84C90.22,34.167,87.244,31.19,83.487,31.19z
		 M74.092,40.115c0-0.939,0.781-1.721,1.721-1.721h5.321c0.947,0,1.722,0.781,1.722,1.721v5.325c0,0.939-0.774,1.721-1.722,1.721
		h-5.321c-0.939,0-1.721-0.781-1.721-1.721V40.115z M61.563,48.886c6.103,0,11.123,4.851,11.123,10.962
		c0,6.106-5.021,10.957-11.123,10.957c-6.104,0-10.966-4.851-10.966-10.957C50.598,53.895,55.46,48.886,61.563,48.886z
		 M84.89,81.298c0,0.94-0.779,1.73-1.719,1.73H40.113c-0.946,0-1.719-0.79-1.719-1.73V54.365h7.198
		c-0.94,1.408-1.247,3.917-1.247,5.482c0,9.549,7.823,17.386,17.525,17.386c9.71,0,17.542-7.837,17.542-17.386
		c0-1.565-0.158-4.074-1.405-5.482h7.198v26.933H84.89z"/>
</g>
</svg>
